<mxfile host="app.diagrams.net" agent="Mozilla/5.0 (Windows NT 10.0; Win64; x64) AppleWebKit/537.36 (KHTML, like Gecko) Chrome/131.0.0.0 Safari/537.36" version="25.0.3">
  <diagram name="Page-1" id="i6nwWCif_jXPTf1KdA4u">
    <mxGraphModel dx="1195" dy="650" grid="1" gridSize="10" guides="1" tooltips="1" connect="1" arrows="1" fold="1" page="1" pageScale="1" pageWidth="850" pageHeight="1100" math="0" shadow="0">
      <root>
        <mxCell id="0" />
        <mxCell id="1" parent="0" />
        <mxCell id="sdwMncg-njvqC2vvRooG-34" value="" style="rounded=1;whiteSpace=wrap;html=1;fillColor=#f8cecc;strokeColor=#b85450;" vertex="1" parent="1">
          <mxGeometry x="120" y="654" width="720" height="360" as="geometry" />
        </mxCell>
        <mxCell id="sdwMncg-njvqC2vvRooG-27" value="" style="rounded=1;whiteSpace=wrap;html=1;fillColor=#f8cecc;strokeColor=#b85450;" vertex="1" parent="1">
          <mxGeometry x="120" y="7" width="720" height="610" as="geometry" />
        </mxCell>
        <mxCell id="sdwMncg-njvqC2vvRooG-15" style="edgeStyle=orthogonalEdgeStyle;rounded=0;orthogonalLoop=1;jettySize=auto;html=1;exitX=1;exitY=0.5;exitDx=0;exitDy=0;entryX=0;entryY=0.5;entryDx=0;entryDy=0;" edge="1" parent="1" source="sdwMncg-njvqC2vvRooG-1" target="sdwMncg-njvqC2vvRooG-5">
          <mxGeometry relative="1" as="geometry" />
        </mxCell>
        <mxCell id="sdwMncg-njvqC2vvRooG-16" style="edgeStyle=orthogonalEdgeStyle;rounded=0;orthogonalLoop=1;jettySize=auto;html=1;exitX=1;exitY=0.5;exitDx=0;exitDy=0;entryX=0;entryY=0.5;entryDx=0;entryDy=0;" edge="1" parent="1" source="sdwMncg-njvqC2vvRooG-1" target="sdwMncg-njvqC2vvRooG-8">
          <mxGeometry relative="1" as="geometry" />
        </mxCell>
        <mxCell id="sdwMncg-njvqC2vvRooG-17" style="edgeStyle=orthogonalEdgeStyle;rounded=0;orthogonalLoop=1;jettySize=auto;html=1;exitX=1;exitY=0.5;exitDx=0;exitDy=0;entryX=0;entryY=0.5;entryDx=0;entryDy=0;" edge="1" parent="1" source="sdwMncg-njvqC2vvRooG-1" target="sdwMncg-njvqC2vvRooG-6">
          <mxGeometry relative="1" as="geometry" />
        </mxCell>
        <mxCell id="sdwMncg-njvqC2vvRooG-18" style="edgeStyle=orthogonalEdgeStyle;rounded=0;orthogonalLoop=1;jettySize=auto;html=1;exitX=1;exitY=0.5;exitDx=0;exitDy=0;entryX=0;entryY=0.5;entryDx=0;entryDy=0;" edge="1" parent="1" source="sdwMncg-njvqC2vvRooG-1" target="sdwMncg-njvqC2vvRooG-7">
          <mxGeometry relative="1" as="geometry" />
        </mxCell>
        <mxCell id="sdwMncg-njvqC2vvRooG-1" value="Parallel Execution to Microservices" style="rounded=1;whiteSpace=wrap;html=1;fillColor=#dae8fc;strokeColor=#6c8ebf;" vertex="1" parent="1">
          <mxGeometry x="320" y="329" width="120" height="80" as="geometry" />
        </mxCell>
        <mxCell id="sdwMncg-njvqC2vvRooG-26" style="edgeStyle=orthogonalEdgeStyle;rounded=0;orthogonalLoop=1;jettySize=auto;html=1;exitX=0.5;exitY=0;exitDx=0;exitDy=0;entryX=0.5;entryY=1;entryDx=0;entryDy=0;" edge="1" parent="1" source="sdwMncg-njvqC2vvRooG-3" target="sdwMncg-njvqC2vvRooG-4">
          <mxGeometry relative="1" as="geometry" />
        </mxCell>
        <mxCell id="sdwMncg-njvqC2vvRooG-3" value="USING LLM convert NLQ to JSON Data" style="rounded=1;whiteSpace=wrap;html=1;fillColor=#d5e8d4;strokeColor=#82b366;" vertex="1" parent="1">
          <mxGeometry x="160" y="439" width="120" height="80" as="geometry" />
        </mxCell>
        <mxCell id="sdwMncg-njvqC2vvRooG-14" style="edgeStyle=orthogonalEdgeStyle;rounded=0;orthogonalLoop=1;jettySize=auto;html=1;exitX=1;exitY=0.5;exitDx=0;exitDy=0;entryX=0;entryY=0.5;entryDx=0;entryDy=0;" edge="1" parent="1" source="sdwMncg-njvqC2vvRooG-4" target="sdwMncg-njvqC2vvRooG-1">
          <mxGeometry relative="1" as="geometry" />
        </mxCell>
        <mxCell id="sdwMncg-njvqC2vvRooG-4" value="Fast API Microservices" style="rounded=1;whiteSpace=wrap;html=1;fillColor=#d5e8d4;strokeColor=#82b366;" vertex="1" parent="1">
          <mxGeometry x="160" y="329" width="120" height="80" as="geometry" />
        </mxCell>
        <mxCell id="sdwMncg-njvqC2vvRooG-19" style="edgeStyle=orthogonalEdgeStyle;rounded=0;orthogonalLoop=1;jettySize=auto;html=1;exitX=1;exitY=0.5;exitDx=0;exitDy=0;entryX=0;entryY=0.5;entryDx=0;entryDy=0;" edge="1" parent="1" source="sdwMncg-njvqC2vvRooG-5" target="sdwMncg-njvqC2vvRooG-9">
          <mxGeometry relative="1" as="geometry" />
        </mxCell>
        <mxCell id="sdwMncg-njvqC2vvRooG-20" style="edgeStyle=orthogonalEdgeStyle;rounded=0;orthogonalLoop=1;jettySize=auto;html=1;exitX=1;exitY=0.5;exitDx=0;exitDy=0;entryX=0;entryY=0.5;entryDx=0;entryDy=0;" edge="1" parent="1" source="sdwMncg-njvqC2vvRooG-5" target="sdwMncg-njvqC2vvRooG-10">
          <mxGeometry relative="1" as="geometry" />
        </mxCell>
        <mxCell id="sdwMncg-njvqC2vvRooG-5" value="Predication Microservices&amp;nbsp;" style="rounded=1;whiteSpace=wrap;html=1;fillColor=#f5f5f5;fontColor=#333333;strokeColor=#666666;" vertex="1" parent="1">
          <mxGeometry x="480" y="139" width="120" height="80" as="geometry" />
        </mxCell>
        <mxCell id="sdwMncg-njvqC2vvRooG-6" value="Technical Indication Analysis Microservices" style="rounded=1;whiteSpace=wrap;html=1;fillColor=#f5f5f5;fontColor=#333333;strokeColor=#666666;" vertex="1" parent="1">
          <mxGeometry x="480" y="259" width="120" height="80" as="geometry" />
        </mxCell>
        <mxCell id="sdwMncg-njvqC2vvRooG-24" style="edgeStyle=orthogonalEdgeStyle;rounded=0;orthogonalLoop=1;jettySize=auto;html=1;exitX=1;exitY=0.5;exitDx=0;exitDy=0;entryX=0;entryY=0.5;entryDx=0;entryDy=0;" edge="1" parent="1" source="sdwMncg-njvqC2vvRooG-7" target="sdwMncg-njvqC2vvRooG-13">
          <mxGeometry relative="1" as="geometry" />
        </mxCell>
        <mxCell id="sdwMncg-njvqC2vvRooG-7" value="Fundamental Analysis Microservices" style="rounded=1;whiteSpace=wrap;html=1;fillColor=#f5f5f5;fontColor=#333333;strokeColor=#666666;" vertex="1" parent="1">
          <mxGeometry x="480" y="379" width="120" height="80" as="geometry" />
        </mxCell>
        <mxCell id="sdwMncg-njvqC2vvRooG-25" style="edgeStyle=orthogonalEdgeStyle;rounded=0;orthogonalLoop=1;jettySize=auto;html=1;exitX=1;exitY=0.5;exitDx=0;exitDy=0;entryX=0;entryY=0.5;entryDx=0;entryDy=0;" edge="1" parent="1" source="sdwMncg-njvqC2vvRooG-8" target="sdwMncg-njvqC2vvRooG-12">
          <mxGeometry relative="1" as="geometry" />
        </mxCell>
        <mxCell id="sdwMncg-njvqC2vvRooG-8" value="Real TIme Data Microservices" style="rounded=1;whiteSpace=wrap;html=1;fillColor=#f5f5f5;fontColor=#333333;strokeColor=#666666;" vertex="1" parent="1">
          <mxGeometry x="480" y="489" width="120" height="80" as="geometry" />
        </mxCell>
        <mxCell id="sdwMncg-njvqC2vvRooG-9" value="10 yrs history data analysis logic" style="rounded=1;whiteSpace=wrap;html=1;fillColor=#dae8fc;strokeColor=#6c8ebf;" vertex="1" parent="1">
          <mxGeometry x="640" y="49" width="190" height="80" as="geometry" />
        </mxCell>
        <mxCell id="sdwMncg-njvqC2vvRooG-10" value="short time data analysis- It is sync daily data and give predication based on hours, days" style="rounded=1;whiteSpace=wrap;html=1;fillColor=#dae8fc;strokeColor=#6c8ebf;" vertex="1" parent="1">
          <mxGeometry x="640" y="169" width="190" height="80" as="geometry" />
        </mxCell>
        <mxCell id="sdwMncg-njvqC2vvRooG-11" value="It analysis the all technical indicator, and give based on yearly predication which indication is perfect to predict the right data. like MACD, ROC etc" style="rounded=1;whiteSpace=wrap;html=1;fillColor=#dae8fc;strokeColor=#6c8ebf;" vertex="1" parent="1">
          <mxGeometry x="640" y="265" width="190" height="80" as="geometry" />
        </mxCell>
        <mxCell id="sdwMncg-njvqC2vvRooG-12" value="It analysis the google data like, Economic Times, Business data etch, take help of serpAPI" style="rounded=1;whiteSpace=wrap;html=1;fillColor=#dae8fc;strokeColor=#6c8ebf;" vertex="1" parent="1">
          <mxGeometry x="640" y="489" width="190" height="80" as="geometry" />
        </mxCell>
        <mxCell id="sdwMncg-njvqC2vvRooG-13" value="It analysis the fundamental data for 3 or 5 yrs what are the cash in flow, cash out flow, balance sheet, loss, profit" style="rounded=1;whiteSpace=wrap;html=1;fillColor=#dae8fc;strokeColor=#6c8ebf;" vertex="1" parent="1">
          <mxGeometry x="640" y="379" width="190" height="80" as="geometry" />
        </mxCell>
        <mxCell id="sdwMncg-njvqC2vvRooG-21" style="edgeStyle=orthogonalEdgeStyle;rounded=0;orthogonalLoop=1;jettySize=auto;html=1;exitX=1;exitY=0.5;exitDx=0;exitDy=0;entryX=0.005;entryY=0.425;entryDx=0;entryDy=0;entryPerimeter=0;" edge="1" parent="1" source="sdwMncg-njvqC2vvRooG-6" target="sdwMncg-njvqC2vvRooG-11">
          <mxGeometry relative="1" as="geometry" />
        </mxCell>
        <mxCell id="sdwMncg-njvqC2vvRooG-28" value="" style="endArrow=classic;html=1;rounded=0;targetPerimeterSpacing=4;endSize=7;strokeWidth=2;" edge="1" parent="1">
          <mxGeometry width="50" height="50" relative="1" as="geometry">
            <mxPoint x="20" y="367" as="sourcePoint" />
            <mxPoint x="160" y="367" as="targetPoint" />
          </mxGeometry>
        </mxCell>
        <mxCell id="sdwMncg-njvqC2vvRooG-30" value="Request(NLQ)" style="text;html=1;align=center;verticalAlign=middle;whiteSpace=wrap;rounded=0;" vertex="1" parent="1">
          <mxGeometry x="40" y="339" width="60" height="30" as="geometry" />
        </mxCell>
        <mxCell id="sdwMncg-njvqC2vvRooG-31" value="Response" style="text;html=1;align=center;verticalAlign=middle;whiteSpace=wrap;rounded=0;" vertex="1" parent="1">
          <mxGeometry x="32" y="379" width="68" height="30" as="geometry" />
        </mxCell>
        <mxCell id="sdwMncg-njvqC2vvRooG-32" value="" style="rounded=1;whiteSpace=wrap;html=1;fillColor=#f5f5f5;fontColor=#333333;strokeColor=#666666;" vertex="1" parent="1">
          <mxGeometry x="150" y="694" width="360" height="280" as="geometry" />
        </mxCell>
        <mxCell id="sdwMncg-njvqC2vvRooG-33" value="3rd Party API Like-&lt;br&gt;Zeordha, Grows etc" style="rounded=1;whiteSpace=wrap;html=1;fillColor=#d5e8d4;strokeColor=#82b366;" vertex="1" parent="1">
          <mxGeometry x="560" y="754" width="230" height="140" as="geometry" />
        </mxCell>
        <mxCell id="sdwMncg-njvqC2vvRooG-35" style="edgeStyle=orthogonalEdgeStyle;rounded=0;orthogonalLoop=1;jettySize=auto;html=1;entryX=-0.005;entryY=0.436;entryDx=0;entryDy=0;entryPerimeter=0;" edge="1" parent="1" target="sdwMncg-njvqC2vvRooG-34">
          <mxGeometry relative="1" as="geometry">
            <mxPoint x="50" y="407" as="sourcePoint" />
            <Array as="points">
              <mxPoint x="50" y="811" />
            </Array>
          </mxGeometry>
        </mxCell>
        <mxCell id="sdwMncg-njvqC2vvRooG-36" value="Data Analysis" style="text;html=1;align=center;verticalAlign=middle;whiteSpace=wrap;rounded=0;" vertex="1" parent="1">
          <mxGeometry x="400" y="37" width="120" height="30" as="geometry" />
        </mxCell>
        <mxCell id="sdwMncg-njvqC2vvRooG-38" value="Algo Trading Platefrom" style="text;html=1;align=center;verticalAlign=middle;whiteSpace=wrap;rounded=0;" vertex="1" parent="1">
          <mxGeometry x="340" y="654" width="190" height="30" as="geometry" />
        </mxCell>
        <mxCell id="sdwMncg-njvqC2vvRooG-42" value="" style="edgeStyle=orthogonalEdgeStyle;rounded=0;orthogonalLoop=1;jettySize=auto;html=1;" edge="1" parent="1" source="sdwMncg-njvqC2vvRooG-39" target="sdwMncg-njvqC2vvRooG-41">
          <mxGeometry relative="1" as="geometry" />
        </mxCell>
        <mxCell id="sdwMncg-njvqC2vvRooG-39" value="React APPS" style="rounded=1;whiteSpace=wrap;html=1;" vertex="1" parent="1">
          <mxGeometry x="160" y="784" width="100" height="90" as="geometry" />
        </mxCell>
        <mxCell id="sdwMncg-njvqC2vvRooG-44" style="edgeStyle=orthogonalEdgeStyle;rounded=0;orthogonalLoop=1;jettySize=auto;html=1;exitX=1;exitY=0.5;exitDx=0;exitDy=0;entryX=0;entryY=0.5;entryDx=0;entryDy=0;" edge="1" parent="1" source="sdwMncg-njvqC2vvRooG-40" target="sdwMncg-njvqC2vvRooG-33">
          <mxGeometry relative="1" as="geometry" />
        </mxCell>
        <mxCell id="sdwMncg-njvqC2vvRooG-40" value="Fast API Microservice to executed&amp;nbsp;" style="rounded=1;whiteSpace=wrap;html=1;" vertex="1" parent="1">
          <mxGeometry x="330" y="744" width="120" height="60" as="geometry" />
        </mxCell>
        <mxCell id="sdwMncg-njvqC2vvRooG-41" value="Setup Account for payment" style="rounded=1;whiteSpace=wrap;html=1;" vertex="1" parent="1">
          <mxGeometry x="330" y="844" width="120" height="60" as="geometry" />
        </mxCell>
        <mxCell id="sdwMncg-njvqC2vvRooG-43" style="edgeStyle=orthogonalEdgeStyle;rounded=0;orthogonalLoop=1;jettySize=auto;html=1;exitX=1;exitY=0.5;exitDx=0;exitDy=0;entryX=0.017;entryY=0.65;entryDx=0;entryDy=0;entryPerimeter=0;" edge="1" parent="1" source="sdwMncg-njvqC2vvRooG-39" target="sdwMncg-njvqC2vvRooG-40">
          <mxGeometry relative="1" as="geometry" />
        </mxCell>
      </root>
    </mxGraphModel>
  </diagram>
</mxfile>
